<?xml version="1.0" encoding="UTF-8"?>
<svg baseProfile="tiny" height="676" version="1.2" viewBox="0 0 793 676" width="793" xmlns="http://www.w3.org/2000/svg">
  <text fill="black" font-family="sans-serif" font-size="20" font-weight="bold" x="328.37955729166663" y="30.427083333333144">
    Exercise 0.6  </text>
  <path d="M-487,-524.4166666666669 L-487,0" fill="none" stroke="black" stroke-width="1" transform="translate(724.5 609.5)"/>
  <rect fill="white" height="32" stroke="black" stroke-width="1" width="77" x="199.5" y="53.5"/>
  <text fill="black" font-family="sans-serif" font-size="13.333333333333334" x="210.61197916666663" y="74.13541666666659">
    browser  </text>
  <rect fill="white" height="32" stroke="black" stroke-width="1" width="77" x="199.5" y="609.5"/>
  <text fill="black" font-family="sans-serif" font-size="13.333333333333334" x="210.61197916666663" y="630.59375">
    browser  </text>
  <path d="M-43,-524.4166666666669 L-43,0" fill="none" stroke="black" stroke-width="1" transform="translate(724.5 609.5)"/>
  <rect fill="white" height="32" stroke="black" stroke-width="1" width="65" x="649.5" y="53.5"/>
  <text fill="black" font-family="sans-serif" font-size="13.333333333333334" x="660.7890625" y="74.13541666666659">
    server  </text>
  <rect fill="white" height="32" stroke="black" stroke-width="1" width="65" x="649.5" y="609.5"/>
  <text fill="black" font-family="sans-serif" font-size="13.333333333333334" x="660.7890625" y="630.59375">
    server  </text>
  <path d="M27,-524.4166666666669 L27,0" fill="none" stroke="black" stroke-width="1" transform="translate(724.5 609.5)"/>
  <rect fill="white" height="32" stroke="black" stroke-width="1" width="53" x="724.5" y="53.5"/>
  <text fill="black" font-family="sans-serif" font-size="13.333333333333334" x="736.00390625" y="74.13541666666659">
    User  </text>
  <rect fill="white" height="32" stroke="black" stroke-width="1" width="53" x="724.5" y="609.5"/>
  <text fill="black" font-family="sans-serif" font-size="13.333333333333334" x="736.00390625" y="630.59375">
    User  </text>
  <rect fill="white" height="15.333333333333314" width="367.03125" x="276.146484375" y="98.41666666666646"/>
  <text fill="black" font-family="sans-serif" font-size="13.333333333333334" x="276.146484375" y="111.74999999999979">
    HTTP GET https://studies.cs.helsinki.fi/exampleapp/spa  </text>
  <path d="M-486.568359375,-495 L-43.107421875,-495" fill="none" stroke="black" stroke-width="1" transform="translate(724.5 609.5)"/>
  <path d="M-44,-495 L-44,-495 L-52,-503 L-52,-495 L-52,-487 L-44,-495" fill="black" stroke="black" stroke-width="1" transform="translate(724.5 609.5)"/>
  <rect fill="white" height="15.333333333333314" width="74.06901041666669" x="422.62760416666663" y="128.27083333333314"/>
  <text fill="black" font-family="sans-serif" font-size="13.333333333333334" x="422.62760416666663" y="141.6041666666665">
    HTML-code  </text>
  <path d="M-486.568359375,-465 L-43.107421875,-465" fill="none" stroke="black" stroke-dasharray="5,3" stroke-width="1" transform="translate(724.5 609.5)"/>
  <path d="M-486,-465 L-486,-465 L-478,-473 L-478,-465 L-478,-457 L-486,-465" fill="black" stroke="black" stroke-width="1" transform="translate(724.5 609.5)"/>
  <rect fill="white" height="15.333333333333314" width="402.2265625" x="258.548828125" y="158.12499999999983"/>
  <text fill="black" font-family="sans-serif" font-size="13.333333333333334" x="258.548828125" y="171.45833333333317">
    HTTP GET https://studies.cs.helsinki.fi/exampleapp/main.css  </text>
  <path d="M-486.568359375,-435 L-43.107421875,-435" fill="none" stroke="black" stroke-width="1" transform="translate(724.5 609.5)"/>
  <path d="M-44,-435 L-44,-435 L-52,-443 L-52,-435 L-52,-427 L-44,-435" fill="black" stroke="black" stroke-width="1" transform="translate(724.5 609.5)"/>
  <rect fill="white" height="15.333333333333314" width="58.776041666666686" x="430.27408854166663" y="187.97916666666652"/>
  <text fill="black" font-family="sans-serif" font-size="13.333333333333334" x="430.27408854166663" y="201.31249999999986">
    main.css  </text>
  <path d="M-486.568359375,-405 L-43.107421875,-405" fill="none" stroke="black" stroke-dasharray="5,3" stroke-width="1" transform="translate(724.5 609.5)"/>
  <path d="M-486,-405 L-486,-405 L-478,-413 L-478,-405 L-478,-397 L-486,-405" fill="black" stroke="black" stroke-width="1" transform="translate(724.5 609.5)"/>
  <rect fill="white" height="15.333333333333314" width="381.92057291666663" x="268.70182291666663" y="217.8333333333332"/>
  <text fill="black" font-family="sans-serif" font-size="13.333333333333334" x="268.70182291666663" y="231.16666666666654">
    HTTP GET https://studies.cs.helsinki.fi/exampleapp/spa.js  </text>
  <path d="M-486.568359375,-375 L-43.107421875,-375" fill="none" stroke="black" stroke-width="1" transform="translate(724.5 609.5)"/>
  <path d="M-44,-375 L-44,-375 L-52,-383 L-52,-375 L-52,-367 L-44,-375" fill="black" stroke="black" stroke-width="1" transform="translate(724.5 609.5)"/>
  <rect fill="white" height="15.333333333333314" width="38.470052083333314" x="440.4270833333333" y="247.6874999999999"/>
  <text fill="black" font-family="sans-serif" font-size="13.333333333333334" x="440.4270833333333" y="261.0208333333332">
    spa.js  </text>
  <path d="M-486.568359375,-345 L-43.107421875,-345" fill="none" stroke="black" stroke-dasharray="5,3" stroke-width="1" transform="translate(724.5 609.5)"/>
  <path d="M-486,-345 L-486,-345 L-478,-353 L-478,-345 L-478,-337 L-486,-345" fill="black" stroke="black" stroke-width="1" transform="translate(724.5 609.5)"/>
  <path d="M-614,-332 L-614,-332 L-368,-332 L-360,-324 L-360,-284 L-614,-284 L-614,-332" fill="white" stroke="black" stroke-width="1" transform="translate(724.5 609.5)"/>
  <path d="M-368.0078125,-331.9583333333334 L-368.0078125,-323.9583333333334 L-360.0078125,-323.9583333333334" fill="none" stroke="black" stroke-width="1" transform="translate(724.5 609.5)"/>
  <text fill="black" font-family="sans-serif" font-size="13.333333333333334" x="116.123046875" y="298.6354166666666">
    browser starts executing spa.js  </text>
  <text fill="black" font-family="sans-serif" font-size="13.333333333333334" x="116.123046875" y="314.1562499999999">
    that requests JSON data from server  </text>
  <rect fill="white" height="15.333333333333314" width="404.98046875" x="257.171875" y="338.43749999999994"/>
  <text fill="black" font-family="sans-serif" font-size="13.333333333333334" x="257.171875" y="351.77083333333326">
    HTTP GET https://studies.cs.helsinki.fi/exampleapp/data.json  </text>
  <path d="M-486.568359375,-255 L-43.107421875,-255" fill="none" stroke="black" stroke-width="1" transform="translate(724.5 609.5)"/>
  <path d="M-44,-255 L-44,-255 L-52,-263 L-52,-255 L-52,-247 L-44,-255" fill="black" stroke="black" stroke-width="1" transform="translate(724.5 609.5)"/>
  <rect fill="white" height="15.333333333333371" width="352.0052083333334" x="283.6595052083333" y="368.29166666666663"/>
  <text fill="black" font-family="sans-serif" font-size="13.333333333333334" x="283.6595052083333" y="381.62499999999994">
    [{ content: &#34;Paljon onnea&#34;, date: &#34;2024-08-26&#34; }, ...]  </text>
  <path d="M-486.568359375,-225 L-43.107421875,-225" fill="none" stroke="black" stroke-dasharray="5,3" stroke-width="1" transform="translate(724.5 609.5)"/>
  <path d="M-486,-225 L-486,-225 L-478,-233 L-478,-225 L-478,-217 L-486,-225" fill="black" stroke="black" stroke-width="1" transform="translate(724.5 609.5)"/>
  <path d="M-682,-211 L-682,-211 L-300,-211 L-292,-203 L-292,-164 L-682,-164 L-682,-211" fill="white" stroke="black" stroke-width="1" transform="translate(724.5 609.5)"/>
  <path d="M-300.2994791666667,-211.35416666666669 L-300.2994791666667,-203.35416666666669 L-292.2994791666667,-203.35416666666669" fill="none" stroke="black" stroke-width="1" transform="translate(724.5 609.5)"/>
  <text fill="black" font-family="sans-serif" font-size="13.333333333333334" x="48.41471354166663" y="419.2395833333333">
    browser executes the event handler  </text>
  <text fill="black" font-family="sans-serif" font-size="13.333333333333334" x="48.41471354166663" y="434.76041666666663">
    that renders notes to display without reloading the page  </text>
  <rect fill="white" height="15.333333333333371" width="262.13541666666663" x="363.24772135416663" y="459.04166666666663"/>
  <text fill="black" font-family="sans-serif" font-size="13.333333333333334" x="363.24772135416663" y="472.37499999999994">
    User creates a new note and submits it  </text>
  <path d="M-486.568359375,-134 L26.19921875,-134" fill="none" stroke="black" stroke-width="1" transform="translate(724.5 609.5)"/>
  <path d="M-486,-134 L-486,-134 L-478,-142 L-478,-134 L-478,-126 L-486,-134" fill="black" stroke="black" stroke-width="1" transform="translate(724.5 609.5)"/>
  <rect fill="white" height="15.333333333333314" width="415.95703125" x="251.68359375" y="488.8958333333333"/>
  <text fill="black" font-family="sans-serif" font-size="13.333333333333334" x="251.68359375" y="502.22916666666663">
    HTTP POST https://studies.cs.helsinki.fi/exampleapp/new_note  </text>
  <path d="M-486.568359375,-104 L-43.107421875,-104" fill="none" stroke="black" stroke-width="1" transform="translate(724.5 609.5)"/>
  <path d="M-44,-104 L-44,-104 L-52,-112 L-52,-104 L-52,-96 L-44,-104" fill="black" stroke="black" stroke-width="1" transform="translate(724.5 609.5)"/>
  <rect fill="white" height="15.333333333333258" width="270.4622395833334" x="324.4309895833333" y="518.75"/>
  <text fill="black" font-family="sans-serif" font-size="13.333333333333334" x="324.4309895833333" y="532.0833333333334">
    {&#34;message&#34;: &#34;Note saved successfully&#34;}  </text>
  <path d="M-486.568359375,-74 L-43.107421875,-74" fill="none" stroke="black" stroke-dasharray="5,3" stroke-width="1" transform="translate(724.5 609.5)"/>
  <path d="M-486,-74 L-486,-74 L-478,-82 L-478,-74 L-478,-66 L-486,-74" fill="black" stroke="black" stroke-width="1" transform="translate(724.5 609.5)"/>
  <path d="M-714,-61 L-714,-61 L-268,-61 L-260,-53 L-260,-13 L-714,-13 L-714,-61" fill="white" stroke="black" stroke-width="1" transform="translate(724.5 609.5)"/>
  <path d="M-268.05989583333337,-60.89583333333337 L-268.05989583333337,-52.89583333333337 L-260.05989583333337,-52.89583333333337" fill="none" stroke="black" stroke-width="1" transform="translate(724.5 609.5)"/>
  <text fill="black" font-family="sans-serif" font-size="13.333333333333334" x="16.175130208333258" y="569.6979166666667">
    browser updates the notes list  </text>
  <text fill="black" font-family="sans-serif" font-size="13.333333333333334" x="16.175130208333258" y="585.21875">
    and renders the new note dynamically without reloading the page  </text>
  <text fill="black" font-family="Arial" font-size="14" x="574.8860677083333" y="666.4270833333331">
    www.websequencediagrams.com  </text>
</svg>
