<?xml version="1.0" encoding="UTF-8"?>
<svg baseProfile="tiny" height="525" version="1.2" viewBox="0 0 686 525" width="686" xmlns="http://www.w3.org/2000/svg">
  <text fill="black" font-family="sans-serif" font-size="20" font-weight="bold" x="275.50325520833326" y="30.885416666666572">
    Exercise 0.5  </text>
  <path d="M-401,-373.9583333333334 L-401,0" fill="none" stroke="black" stroke-width="1" transform="translate(606.5 459.5)"/>
  <rect fill="white" height="32" stroke="black" stroke-width="1" width="77" x="167.5" y="53.5"/>
  <text fill="black" font-family="sans-serif" font-size="13.333333333333334" x="178.80338541666669" y="74.59374999999984">
    browser  </text>
  <rect fill="white" height="32" stroke="black" stroke-width="1" width="77" x="167.5" y="459.5"/>
  <text fill="black" font-family="sans-serif" font-size="13.333333333333334" x="178.80338541666669" y="480.59375">
    browser  </text>
  <path d="M33,-373.9583333333334 L33,0" fill="none" stroke="black" stroke-width="1" transform="translate(606.5 459.5)"/>
  <rect fill="white" height="32" stroke="black" stroke-width="1" width="65" x="606.5" y="53.5"/>
  <text fill="black" font-family="sans-serif" font-size="13.333333333333334" x="618.00390625" y="74.59374999999984">
    server  </text>
  <rect fill="white" height="32" stroke="black" stroke-width="1" width="65" x="606.5" y="459.5"/>
  <text fill="black" font-family="sans-serif" font-size="13.333333333333334" x="618.00390625" y="480.59375">
    server  </text>
  <rect fill="white" height="15.333333333333314" width="367.03125" x="238.849609375" y="98.87499999999989"/>
  <text fill="black" font-family="sans-serif" font-size="13.333333333333334" x="238.849609375" y="112.20833333333321">
    HTTP GET https://studies.cs.helsinki.fi/exampleapp/spa  </text>
  <path d="M-400.376953125,-344 L32.107421875,-344" fill="none" stroke="black" stroke-width="1" transform="translate(606.5 459.5)"/>
  <path d="M32,-344 L32,-344 L24,-352 L24,-344 L24,-336 L32,-344" fill="black" stroke="black" stroke-width="1" transform="translate(606.5 459.5)"/>
  <rect fill="white" height="15.333333333333314" width="74.06901041666669" x="385.33072916666663" y="128.72916666666657"/>
  <text fill="black" font-family="sans-serif" font-size="13.333333333333334" x="385.33072916666663" y="142.06249999999991">
    HTML-code  </text>
  <path d="M-400.376953125,-314 L32.107421875,-314" fill="none" stroke="black" stroke-dasharray="5,3" stroke-width="1" transform="translate(606.5 459.5)"/>
  <path d="M-400,-314 L-400,-314 L-392,-322 L-392,-314 L-392,-306 L-400,-314" fill="black" stroke="black" stroke-width="1" transform="translate(606.5 459.5)"/>
  <rect fill="white" height="15.333333333333314" width="402.2265625" x="221.251953125" y="158.58333333333326"/>
  <text fill="black" font-family="sans-serif" font-size="13.333333333333334" x="221.251953125" y="171.9166666666666">
    HTTP GET https://studies.cs.helsinki.fi/exampleapp/main.css  </text>
  <path d="M-400.376953125,-284 L32.107421875,-284" fill="none" stroke="black" stroke-width="1" transform="translate(606.5 459.5)"/>
  <path d="M32,-284 L32,-284 L24,-292 L24,-284 L24,-276 L32,-284" fill="black" stroke="black" stroke-width="1" transform="translate(606.5 459.5)"/>
  <rect fill="white" height="15.333333333333343" width="58.776041666666686" x="392.97721354166663" y="188.43749999999994"/>
  <text fill="black" font-family="sans-serif" font-size="13.333333333333334" x="392.97721354166663" y="201.7708333333333">
    main.css  </text>
  <path d="M-400.376953125,-255 L32.107421875,-255" fill="none" stroke="black" stroke-dasharray="5,3" stroke-width="1" transform="translate(606.5 459.5)"/>
  <path d="M-400,-255 L-400,-255 L-392,-263 L-392,-255 L-392,-247 L-400,-255" fill="black" stroke="black" stroke-width="1" transform="translate(606.5 459.5)"/>
  <rect fill="white" height="15.333333333333343" width="381.92057291666663" x="231.40494791666663" y="218.29166666666663"/>
  <text fill="black" font-family="sans-serif" font-size="13.333333333333334" x="231.40494791666663" y="231.62499999999997">
    HTTP GET https://studies.cs.helsinki.fi/exampleapp/spa.js  </text>
  <path d="M-400.376953125,-225 L32.107421875,-225" fill="none" stroke="black" stroke-width="1" transform="translate(606.5 459.5)"/>
  <path d="M32,-225 L32,-225 L24,-233 L24,-225 L24,-217 L32,-225" fill="black" stroke="black" stroke-width="1" transform="translate(606.5 459.5)"/>
  <rect fill="white" height="15.333333333333343" width="38.470052083333314" x="403.1302083333333" y="248.1458333333333"/>
  <text fill="black" font-family="sans-serif" font-size="13.333333333333334" x="403.1302083333333" y="261.47916666666663">
    spa.js  </text>
  <path d="M-400.376953125,-195 L32.107421875,-195" fill="none" stroke="black" stroke-dasharray="5,3" stroke-width="1" transform="translate(606.5 459.5)"/>
  <path d="M-400,-195 L-400,-195 L-392,-203 L-392,-195 L-392,-187 L-400,-195" fill="black" stroke="black" stroke-width="1" transform="translate(606.5 459.5)"/>
  <path d="M-528,-182 L-528,-182 L-282,-182 L-274,-174 L-274,-134 L-528,-134 L-528,-182" fill="white" stroke="black" stroke-width="1" transform="translate(606.5 459.5)"/>
  <path d="M-281.81640625,-181.50000000000006 L-281.81640625,-173.50000000000006 L-273.81640625,-173.50000000000006" fill="none" stroke="black" stroke-width="1" transform="translate(606.5 459.5)"/>
  <text fill="black" font-family="sans-serif" font-size="13.333333333333334" x="84.314453125" y="299.09374999999994">
    browser starts executing spa.js  </text>
  <text fill="black" font-family="sans-serif" font-size="13.333333333333334" x="84.314453125" y="314.6145833333333">
    that requests JSON data from server  </text>
  <rect fill="white" height="15.333333333333314" width="404.98046875" x="219.875" y="338.8958333333333"/>
  <text fill="black" font-family="sans-serif" font-size="13.333333333333334" x="219.875" y="352.22916666666663">
    HTTP GET https://studies.cs.helsinki.fi/exampleapp/data.json  </text>
  <path d="M-400.376953125,-104 L32.107421875,-104" fill="none" stroke="black" stroke-width="1" transform="translate(606.5 459.5)"/>
  <path d="M32,-104 L32,-104 L24,-112 L24,-104 L24,-96 L32,-104" fill="black" stroke="black" stroke-width="1" transform="translate(606.5 459.5)"/>
  <rect fill="white" height="15.333333333333314" width="353.5481770833334" x="245.59114583333331" y="368.75"/>
  <text fill="black" font-family="sans-serif" font-size="13.333333333333334" x="245.59114583333331" y="382.0833333333333">
    [{ content: &#34;HTML is easy&#34;, date: &#34;2019-05-23&#34; }, ...]  </text>
  <path d="M-400.376953125,-74 L32.107421875,-74" fill="none" stroke="black" stroke-dasharray="5,3" stroke-width="1" transform="translate(606.5 459.5)"/>
  <path d="M-400,-74 L-400,-74 L-392,-82 L-392,-74 L-392,-66 L-400,-74" fill="black" stroke="black" stroke-width="1" transform="translate(606.5 459.5)"/>
  <path d="M-596,-61 L-596,-61 L-214,-61 L-206,-53 L-206,-13 L-596,-13 L-596,-61" fill="white" stroke="black" stroke-width="1" transform="translate(606.5 459.5)"/>
  <path d="M-214.10807291666669,-60.89583333333337 L-214.10807291666669,-52.89583333333337 L-206.10807291666669,-52.89583333333337" fill="none" stroke="black" stroke-width="1" transform="translate(606.5 459.5)"/>
  <text fill="black" font-family="sans-serif" font-size="13.333333333333334" x="16.60611979166663" y="419.69791666666663">
    browser executes the event handler  </text>
  <text fill="black" font-family="sans-serif" font-size="13.333333333333334" x="16.60611979166663" y="435.21875">
    that renders notes to display without reloading the page  </text>
  <text fill="black" font-family="Arial" font-size="14" x="468.31705729166663" y="515.8854166666665">
    www.websequencediagrams.com  </text>
</svg>
