<?xml version="1.0" encoding="UTF-8"?>
<svg baseProfile="tiny" height="571" version="1.2" viewBox="0 0 559 571" width="559" xmlns="http://www.w3.org/2000/svg">
  <text fill="black" font-family="Arial Unicode MS" font-size="20" font-weight="bold" x="224.48795572916663" y="30.869791666666572">
    Exercise 0.4  </text>
  <path d="M-360,-406.7708333333334 L-360,0" fill="none" stroke="black" stroke-width="1" transform="translate(484.5 500.5)"/>
  <rect fill="white" height="37" stroke="black" stroke-width="1" width="70" x="89.5" y="56.5"/>
  <text fill="black" font-family="Arial Unicode MS" font-size="13.333333333333334" x="100.67057291666663" y="79.26562499999984">
    browser  </text>
  <rect fill="white" height="37" stroke="black" stroke-width="1" width="70" x="89.5" y="500.5"/>
  <text fill="black" font-family="Arial Unicode MS" font-size="13.333333333333334" x="100.67057291666663" y="522.765625">
    browser  </text>
  <path d="M30,-406.7708333333334 L30,0" fill="none" stroke="black" stroke-width="1" transform="translate(484.5 500.5)"/>
  <rect fill="white" height="37" stroke="black" stroke-width="1" width="59" x="484.5" y="56.5"/>
  <text fill="black" font-family="Arial Unicode MS" font-size="13.333333333333334" x="495.6067708333333" y="79.26562499999984">
    server  </text>
  <rect fill="white" height="37" stroke="black" stroke-width="1" width="59" x="484.5" y="500.5"/>
  <text fill="black" font-family="Arial Unicode MS" font-size="13.333333333333334" x="495.6067708333333" y="522.765625">
    server  </text>
  <rect fill="white" height="15.333333333333314" width="340.1432291666667" x="149.18359375" y="107.06249999999989"/>
  <text fill="black" font-family="Arial Unicode MS" font-size="13.333333333333334" x="149.18359375" y="120.39583333333321">
    HTTP GET https://studies.cs.helsinki.fi/exampleapp/notes  </text>
  <path d="M-359.61848958333337,-375 L29.12890625,-375" fill="none" stroke="black" stroke-width="1" transform="translate(484.5 500.5)"/>
  <path d="M29,-375 L29,-375 L21,-383 L21,-375 L21,-367 L29,-375" fill="black" stroke="black" stroke-width="1" transform="translate(484.5 500.5)"/>
  <rect fill="white" height="15.333333333333314" width="69.6484375" x="284.43098958333337" y="139.26041666666657"/>
  <text fill="black" font-family="Arial Unicode MS" font-size="13.333333333333334" x="284.43098958333337" y="152.59374999999991">
    HTML-code  </text>
  <path d="M-359.61848958333337,-342 L29.12890625,-342" fill="none" stroke="black" stroke-dasharray="5,3" stroke-width="1" transform="translate(484.5 500.5)"/>
  <path d="M-359,-342 L-359,-342 L-351,-350 L-351,-342 L-351,-334 L-359,-342" fill="black" stroke="black" stroke-width="1" transform="translate(484.5 500.5)"/>
  <rect fill="white" height="15.333333333333314" width="360.13020833333337" x="139.19010416666663" y="171.45833333333326"/>
  <text fill="black" font-family="Arial Unicode MS" font-size="13.333333333333334" x="139.19010416666663" y="184.7916666666666">
    HTTP GET https://studies.cs.helsinki.fi/exampleapp/main.css  </text>
  <path d="M-359.61848958333337,-310 L29.12890625,-310" fill="none" stroke="black" stroke-width="1" transform="translate(484.5 500.5)"/>
  <path d="M29,-310 L29,-310 L21,-318 L21,-310 L21,-302 L29,-310" fill="black" stroke="black" stroke-width="1" transform="translate(484.5 500.5)"/>
  <rect fill="white" height="15.333333333333314" width="52.604166666666686" x="292.953125" y="203.65624999999994"/>
  <text fill="black" font-family="Arial Unicode MS" font-size="13.333333333333334" x="292.953125" y="216.9895833333333">
    main.css  </text>
  <path d="M-359.61848958333337,-278 L29.12890625,-278" fill="none" stroke="black" stroke-dasharray="5,3" stroke-width="1" transform="translate(484.5 500.5)"/>
  <path d="M-359,-278 L-359,-278 L-351,-286 L-351,-278 L-351,-270 L-359,-278" fill="black" stroke="black" stroke-width="1" transform="translate(484.5 500.5)"/>
  <rect fill="white" height="15.333333333333343" width="349.75911458333337" x="144.37565104166663" y="235.85416666666663"/>
  <text fill="black" font-family="Arial Unicode MS" font-size="13.333333333333334" x="144.37565104166663" y="249.18749999999997">
    HTTP GET https://studies.cs.helsinki.fi/exampleapp/main.js  </text>
  <path d="M-359.61848958333337,-246 L29.12890625,-246" fill="none" stroke="black" stroke-width="1" transform="translate(484.5 500.5)"/>
  <path d="M29,-246 L29,-246 L21,-254 L21,-246 L21,-238 L29,-246" fill="black" stroke="black" stroke-width="1" transform="translate(484.5 500.5)"/>
  <rect fill="white" height="15.333333333333314" width="42.233072916666686" x="298.138671875" y="268.0520833333333"/>
  <text fill="black" font-family="Arial Unicode MS" font-size="13.333333333333334" x="298.138671875" y="281.38541666666663">
    main.js  </text>
  <path d="M-359.61848958333337,-214 L29.12890625,-214" fill="none" stroke="black" stroke-dasharray="5,3" stroke-width="1" transform="translate(484.5 500.5)"/>
  <path d="M-359,-214 L-359,-214 L-351,-222 L-351,-214 L-351,-206 L-359,-214" fill="black" stroke="black" stroke-width="1" transform="translate(484.5 500.5)"/>
  <path d="M-474,-200 L-474,-200 L-254,-200 L-246,-192 L-246,-146 L-474,-146 L-474,-200" fill="white" stroke="black" stroke-width="1" transform="translate(484.5 500.5)"/>
  <path d="M-254.00390625000006,-200.25 L-254.00390625000006,-192.25 L-246.00390625000006,-192.25" fill="none" stroke="black" stroke-width="1" transform="translate(484.5 500.5)"/>
  <text fill="black" font-family="Arial Unicode MS" font-size="13.333333333333334" x="15.820312499999943" y="322.51562499999994">
    browser starts executing js-code  </text>
  <text fill="black" font-family="Arial Unicode MS" font-size="13.333333333333334" x="15.820312499999943" y="340.3802083333333">
    that requests JSON data from server  </text>
  <rect fill="white" height="15.333333333333314" width="361.640625" x="138.43489583333331" y="368.1770833333333"/>
  <text fill="black" font-family="Arial Unicode MS" font-size="13.333333333333334" x="138.43489583333331" y="381.51041666666663">
    HTTP GET https://studies.cs.helsinki.fi/exampleapp/data.json  </text>
  <path d="M-359.61848958333337,-113 L29.12890625,-113" fill="none" stroke="black" stroke-width="1" transform="translate(484.5 500.5)"/>
  <path d="M29,-113 L29,-113 L21,-121 L21,-113 L21,-105 L29,-113" fill="black" stroke="black" stroke-width="1" transform="translate(484.5 500.5)"/>
  <rect fill="white" height="15.333333333333314" width="290.20833333333337" x="174.15104166666663" y="400.375"/>
  <text fill="black" font-family="Arial Unicode MS" font-size="13.333333333333334" x="174.15104166666663" y="413.7083333333333">
    [{ content: &#34;Hyvä React&#34;, date: &#34;2024-08-26&#34; }, ...]  </text>
  <path d="M-359.61848958333337,-81 L29.12890625,-81" fill="none" stroke="black" stroke-dasharray="5,3" stroke-width="1" transform="translate(484.5 500.5)"/>
  <path d="M-359,-81 L-359,-81 L-351,-89 L-351,-81 L-351,-73 L-359,-81" fill="black" stroke="black" stroke-width="1" transform="translate(484.5 500.5)"/>
  <path d="M-471,-68 L-471,-68 L-257,-68 L-249,-60 L-249,-13 L-471,-13 L-471,-68" fill="white" stroke="black" stroke-width="1" transform="translate(484.5 500.5)"/>
  <path d="M-256.94661458333337,-67.92708333333337 L-256.94661458333337,-59.92708333333337 L-248.94661458333334,-59.92708333333337" fill="none" stroke="black" stroke-width="1" transform="translate(484.5 500.5)"/>
  <text fill="black" font-family="Arial Unicode MS" font-size="13.333333333333334" x="18.763020833333258" y="454.83854166666663">
    browser executes the event handler  </text>
  <text fill="black" font-family="Arial Unicode MS" font-size="13.333333333333334" x="18.763020833333258" y="472.703125">
    that renders notes to display  </text>
  <text fill="black" font-family="Arial" font-size="14" x="340.72981770833326" y="561.8697916666665">
    www.websequencediagrams.com  </text>
</svg>
